<?xml version="1.0" encoding="utf-8"?>
<!-- Generator: Adobe Illustrator 17.1.0, SVG Export Plug-In . SVG Version: 6.00 Build 0)  -->
<!DOCTYPE svg PUBLIC "-//W3C//DTD SVG 1.1//EN" "http://www.w3.org/Graphics/SVG/1.1/DTD/svg11.dtd">
<svg version="1.1" fill="#07a6b9" xmlns="http://www.w3.org/2000/svg" xmlns:xlink="http://www.w3.org/1999/xlink" x="0px" y="0px"
	 viewBox="0 0 48 48" enable-background="new 0 0 48 48" xml:space="preserve">
<g>
	<defs>
		<rect id="SVGID_1_" width="48" height="48"/>
	</defs>
	<clipPath id="SVGID_2_">
		<use xlink:href="#SVGID_1_"  overflow="visible"/>
	</clipPath>
	<path clip-path="url(#SVGID_2_)" d="M24,0C10.8,0,0,10.8,0,24c0,13.2,10.8,24,24,24s24-10.8,24-24C48,10.8,37.2,0,24,0 M24,46.4
		c-12.4,0-22.4-10-22.4-22.4c0-12.4,10-22.4,22.4-22.4s22.4,10,22.4,22.4C46.4,36.4,36.4,46.4,24,46.4"/>
	<path clip-path="url(#SVGID_2_)" d="M24.8,20.8v-8.1c0-0.4-0.4-0.8-0.8-0.8c-0.4,0-0.8,0.4-0.8,0.8v8.1c-1.1,0.3-2,1.2-2.3,2.3
		h-5.7c-0.4,0-0.8,0.4-0.8,0.8c0,0.4,0.4,0.8,0.8,0.8h5.7c0.4,1.4,1.6,2.4,3.1,2.4c1.8,0,3.2-1.4,3.2-3.2
		C27.2,22.4,26.2,21.2,24.8,20.8 M24,25.5c-0.9,0-1.6-0.7-1.6-1.6c0-0.9,0.7-1.6,1.6-1.6c0.9,0,1.6,0.7,1.6,1.6
		C25.6,24.8,24.9,25.5,24,25.5"/>
	<path clip-path="url(#SVGID_2_)" d="M24,7.9c0.4,0,0.8-0.4,0.8-0.8V6.3c0-0.4-0.4-0.8-0.8-0.8c-0.4,0-0.8,0.4-0.8,0.8v0.8
		C23.2,7.5,23.6,7.9,24,7.9"/>
	<path clip-path="url(#SVGID_2_)" d="M24,39.9c-0.4,0-0.8,0.4-0.8,0.8v0.8c0,0.4,0.4,0.8,0.8,0.8c0.4,0,0.8-0.4,0.8-0.8v-0.8
		C24.8,40.3,24.4,39.9,24,39.9"/>
	<path clip-path="url(#SVGID_2_)" d="M41.6,23.1h-0.8c-0.4,0-0.8,0.4-0.8,0.8c0,0.4,0.4,0.8,0.8,0.8h0.8c0.4,0,0.8-0.4,0.8-0.8
		C42.4,23.5,42,23.1,41.6,23.1"/>
	<path clip-path="url(#SVGID_2_)" d="M7.2,23.1H6.4c-0.4,0-0.8,0.4-0.8,0.8c0,0.4,0.4,0.8,0.8,0.8h0.8c0.4,0,0.8-0.4,0.8-0.8
		C8,23.5,7.6,23.1,7.2,23.1"/>
	<path clip-path="url(#SVGID_2_)" d="M35.9,10.9l-0.6,0.6c-0.3,0.3-0.3,0.8,0,1.1c0.2,0.2,0.4,0.2,0.6,0.2c0.2,0,0.4-0.1,0.6-0.2
		L37,12c0.3-0.3,0.3-0.8,0-1.1C36.7,10.6,36.2,10.6,35.9,10.9"/>
	<path clip-path="url(#SVGID_2_)" d="M11.6,35.2L11,35.8c-0.3,0.3-0.3,0.8,0,1.1c0.2,0.2,0.4,0.2,0.6,0.2c0.2,0,0.4-0.1,0.6-0.2
		l0.6-0.6c0.3-0.3,0.3-0.8,0-1.1C12.4,34.9,11.9,34.9,11.6,35.2"/>
	<path clip-path="url(#SVGID_2_)" d="M36.4,35.2c-0.3-0.3-0.8-0.3-1.1,0c-0.3,0.3-0.3,0.8,0,1.1l0.6,0.6c0.2,0.2,0.4,0.2,0.6,0.2
		c0.2,0,0.4-0.1,0.6-0.2c0.3-0.3,0.3-0.8,0-1.1L36.4,35.2z"/>
	<path clip-path="url(#SVGID_2_)" d="M12.1,10.9c-0.3-0.3-0.8-0.3-1.1,0c-0.3,0.3-0.3,0.8,0,1.1l0.6,0.6c0.2,0.2,0.4,0.2,0.6,0.2
		c0.2,0,0.4-0.1,0.6-0.2c0.3-0.3,0.3-0.8,0-1.1L12.1,10.9z"/>
</g>
</svg>
