<?xml version="1.0" encoding="utf-8"?>
<!-- Generator: Adobe Illustrator 17.1.0, SVG Export Plug-In . SVG Version: 6.00 Build 0)  -->
<!DOCTYPE svg PUBLIC "-//W3C//DTD SVG 1.1//EN" "http://www.w3.org/Graphics/SVG/1.1/DTD/svg11.dtd">
<svg version="1.1" id="Layer_1" xmlns="http://www.w3.org/2000/svg" xmlns:xlink="http://www.w3.org/1999/xlink" x="0px" y="0px"
	 viewBox="0 0 16.4 22.4" enable-background="new 0 0 16.4 22.4" xml:space="preserve">
<g>
	<defs>
		<rect id="SVGID_1_" y="0" width="16.4" height="22.4"/>
	</defs>
	<clipPath id="SVGID_2_">
		<use xlink:href="#SVGID_1_"  overflow="visible"/>
	</clipPath>
	<path clip-path="url(#SVGID_2_)" fill="none" stroke="#4CA0AD" stroke-miterlimit="10" d="M8.2,0.5L8.2,0.5C4,0.5,0.5,4,0.5,8.2
		c0,1.5,0.5,2.9,1.1,4.1l5,8.7c0.3,0.6,1,0.9,1.6,0.9c0.6,0,1.2-0.3,1.6-0.9l5-8.7c0.7-1.2,1.1-2.6,1.1-4.1C15.9,4,12.5,0.5,8.2,0.5
		z M8.2,10.5c-1.6,0-2.8-1.3-2.8-2.8c0-1.6,1.3-2.8,2.8-2.8c1.6,0,2.8,1.3,2.8,2.8S9.8,10.5,8.2,10.5z"/>
</g>
</svg>
