<?xml version="1.0" encoding="utf-8"?>
<!-- Generator: Adobe Illustrator 17.1.0, SVG Export Plug-In . SVG Version: 6.00 Build 0)  -->
<!DOCTYPE svg PUBLIC "-//W3C//DTD SVG 1.1//EN" "http://www.w3.org/Graphics/SVG/1.1/DTD/svg11.dtd">
<svg version="1.1" id="Layer_1" fill="#07a6b9" xmlns="http://www.w3.org/2000/svg" xmlns:xlink="http://www.w3.org/1999/xlink" x="0px" y="0px"
	 viewBox="0 0 48 48" enable-background="new 0 0 48 48" xml:space="preserve">
<g>
	<defs>
		<rect id="SVGID_1_" width="48" height="48"/>
	</defs>
	<clipPath id="SVGID_2_">
		<use xlink:href="#SVGID_1_"  overflow="visible"/>
	</clipPath>
	<path clip-path="url(#SVGID_2_)" d="M34.1,0H13.9c-1.9,0-3.5,1.6-3.5,3.5v41c0,1.9,1.6,3.5,3.5,3.5h20.2c1.9,0,3.5-1.6,3.5-3.5v-41
		C37.6,1.6,36,0,34.1,0 M12,6.4h24v30.4H12V6.4z M13.9,1.6h20.2c1.1,0,1.9,0.9,1.9,1.9v1.3H12V3.5C12,2.5,12.9,1.6,13.9,1.6
		 M34.1,46.4H13.9c-1.1,0-1.9-0.9-1.9-1.9v-6.1h24v6.1C36,45.5,35.1,46.4,34.1,46.4"/>
	<path clip-path="url(#SVGID_2_)" d="M24,39.2c-1.8,0-3.2,1.4-3.2,3.2c0,1.8,1.4,3.2,3.2,3.2c1.8,0,3.2-1.4,3.2-3.2
		C27.2,40.6,25.8,39.2,24,39.2 M24,44c-0.9,0-1.6-0.7-1.6-1.6c0-0.9,0.7-1.6,1.6-1.6c0.9,0,1.6,0.7,1.6,1.6C25.6,43.3,24.9,44,24,44
		"/>
	<path clip-path="url(#SVGID_2_)" d="M20.8,4H24c0.4,0,0.8-0.4,0.8-0.8c0-0.4-0.4-0.8-0.8-0.8h-3.2c-0.4,0-0.8,0.4-0.8,0.8
		C20,3.6,20.4,4,20.8,4"/>
</g>
<g>
	<defs>
		<rect id="SVGID_3_" width="48" height="48"/>
	</defs>
	<clipPath id="SVGID_4_">
		<use xlink:href="#SVGID_3_"  overflow="visible"/>
	</clipPath>
	<path clip-path="url(#SVGID_4_)" d="M26.4,4h0.8C27.6,4,28,3.6,28,3.2c0-0.4-0.4-0.8-0.8-0.8h-0.8c-0.4,0-0.8,0.4-0.8,0.8
		C25.6,3.6,26,4,26.4,4"/>
	<path clip-path="url(#SVGID_4_)" d="M45.3,3.7c-0.3-0.3-0.8-0.3-1.1,0c-0.3,0.3-0.3,0.8,0,1.1c3,3,3,7.9,0,10.8
		c-0.3,0.3-0.3,0.8,0,1.1c0.2,0.2,0.4,0.2,0.6,0.2c0.2,0,0.4-0.1,0.6-0.2C48.9,13.1,48.9,7.3,45.3,3.7"/>
	<path clip-path="url(#SVGID_4_)" d="M41.9,5.5c-0.3-0.3-0.8-0.3-1.1,0c-0.3,0.3-0.3,0.8,0,1.1c1,1,1.5,2.3,1.5,3.7
		c0,1.4-0.5,2.7-1.5,3.7c-0.3,0.3-0.3,0.8,0,1.1c0.2,0.2,0.4,0.2,0.6,0.2c0.2,0,0.4-0.1,0.6-0.2c1.3-1.3,2-3,2-4.8
		C43.9,8.5,43.2,6.8,41.9,5.5"/>
	<path clip-path="url(#SVGID_4_)" d="M3.8,4.8c0.3-0.3,0.3-0.8,0-1.1C3.5,3.3,3,3.3,2.7,3.7c-3.6,3.6-3.6,9.5,0,13.1
		C2.9,16.9,3.1,17,3.3,17c0.2,0,0.4-0.1,0.6-0.2c0.3-0.3,0.3-0.8,0-1.1C0.9,12.6,0.9,7.8,3.8,4.8"/>
</g>
<g>
	<defs>
		<rect id="SVGID_5_" width="48" height="48"/>
	</defs>
	<clipPath id="SVGID_6_">
		<use xlink:href="#SVGID_5_"  overflow="visible"/>
	</clipPath>
	<path clip-path="url(#SVGID_6_)" d="M7.2,5.3c-0.3-0.3-0.8-0.3-1.1,0c-1.3,1.3-2,3-2,4.8c0,1.8,0.7,3.5,2,4.8
		c0.2,0.2,0.4,0.2,0.6,0.2c0.2,0,0.4-0.1,0.6-0.2c0.3-0.3,0.3-0.8,0-1.1c-1-1-1.5-2.3-1.5-3.7c0-1.4,0.5-2.7,1.5-3.7
		C7.5,6.1,7.5,5.6,7.2,5.3"/>
</g>
</svg>
