<?xml version="1.0" encoding="utf-8"?>
<!-- Generator: Adobe Illustrator 17.1.0, SVG Export Plug-In . SVG Version: 6.00 Build 0)  -->
<!DOCTYPE svg PUBLIC "-//W3C//DTD SVG 1.1//EN" "http://www.w3.org/Graphics/SVG/1.1/DTD/svg11.dtd">
<svg version="1.1" id="Layer_1" fill="#07a6b9" xmlns="http://www.w3.org/2000/svg" xmlns:xlink="http://www.w3.org/1999/xlink" x="0px" y="0px"
	 viewBox="0 0 364.1 353.6" enable-background="new 0 0 364.1 353.6" xml:space="preserve">
<g>
	<defs>
		<rect id="SVGID_1_" width="364.1" height="353.6"/>
	</defs>
	<clipPath id="SVGID_2_">
		<use xlink:href="#SVGID_1_"  overflow="visible"/>
	</clipPath>
	<path clip-path="url(#SVGID_2_)" d="M349.9,133.3c0,0,0-0.5-0.5-0.6L331,117.9V62.3c0-7.8-6.3-14.1-14.1-14.1h-72.8L185.6,1.3
		c-2.2-1.8-5.3-1.8-7.5,0l-58.5,46.9H46.8c-7.8,0-14.1,6.3-14.1,14.1v55.5l-18.5,14.8c-0.2,0.2-0.4,0.5-0.6,0.7
		c-9.1,11.1-13.9,25-13.7,39.4v125c0,27,14.7,56,56,56h252c27,0,56-14.7,56-56v-125c0.7-14.5-4.4-28.7-14.1-39.5V133.3z
		 M335.7,136.8l-4.6,3.3v-7L335.7,136.8z M181.9,13.8l43,34.5H139L181.9,13.8z M46.9,60.3H317c1.1,0,2,0.9,2,2v86.4l-137,95.5
		l-137-95.5V62.3C44.9,61.2,45.8,60.3,46.9,60.3 M32.8,133.2v7l-4.6-3.4L32.8,133.2z M11.9,172.6c-0.1-9.5,2.5-18.9,7.4-27l120,83.8
		L17.3,320.8c-3.5-7.3-5.4-15.3-5.4-23.4V172.6z M55.8,341.5c-11.5,0.7-22.8-3.2-31.4-10.9l125.5-94l28.6,20.2h0.5h0.6
		c0.8,0.4,1.6,0.5,2.4,0.6c0.8,0,1.6-0.2,2.4-0.6h0.6h0.5l28-19.5l125.5,93.8c-8.8,7-19.7,10.7-30.9,10.5L55.8,341.5z M351.8,297.6
		c0.3,8.3-1.6,16.6-5.4,24l-122.6-91.8l120.7-84.2c5.2,8.1,7.7,17.5,7.4,27.1V297.6z"/>
	<path clip-path="url(#SVGID_2_)" d="M83.8,99.2h132c3.3,0,6-2.7,6-6s-2.7-6-6-6h-132c-3.3,0-6,2.7-6,6S80.4,99.2,83.8,99.2"/>
	<path clip-path="url(#SVGID_2_)" d="M83.8,143.3h196.3c3.3,0,6-2.7,6-6s-2.7-6-6-6H83.8c-3.3,0-6,2.7-6,6S80.4,143.3,83.8,143.3"/>
</g>
</svg>
