<?xml version="1.0" encoding="utf-8"?>
<!-- Generator: Adobe Illustrator 17.1.0, SVG Export Plug-In . SVG Version: 6.00 Build 0)  -->
<!DOCTYPE svg PUBLIC "-//W3C//DTD SVG 1.1//EN" "http://www.w3.org/Graphics/SVG/1.1/DTD/svg11.dtd">
<svg version="1.1" id="Layer_1" fill="#07a6b9" xmlns="http://www.w3.org/2000/svg" xmlns:xlink="http://www.w3.org/1999/xlink" x="0px" y="0px"
	 viewBox="0 0 50.8 36.1" enable-background="new 0 0 50.8 36.1" xml:space="preserve">
<g>
	<defs>
		<rect id="SVGID_1_" y="0" width="50.8" height="36.1"/>
	</defs>
	<clipPath id="SVGID_2_">
		<use xlink:href="#SVGID_1_"  overflow="visible"/>
	</clipPath>
	<path clip-path="url(#SVGID_2_)" d="M41.1,27.9c-0.2,0-0.4-0.1-0.6-0.2l-9.4-8.8c-0.3-0.3-0.3-0.8,0-1.2c0.3-0.3,0.8-0.3,1.2,0
		l9.4,8.8c0.3,0.3,0.3,0.8,0,1.2C41.5,27.8,41.3,27.9,41.1,27.9"/>
	<path clip-path="url(#SVGID_2_)" d="M9.7,27.9c-0.2,0-0.4-0.1-0.6-0.3c-0.3-0.3-0.3-0.8,0-1.2l9.4-8.8c0.3-0.3,0.9-0.3,1.2,0
		c0.3,0.3,0.3,0.8,0,1.2l-9.4,8.8C10.1,27.8,9.9,27.9,9.7,27.9"/>
	<path clip-path="url(#SVGID_2_)" d="M46.7,36.1H4.1C1.8,36.1,0,34.3,0,32V4.1C0,1.8,1.8,0,4.1,0h42.6c2.3,0,4.1,1.8,4.1,4.1V32
		C50.8,34.3,48.9,36.1,46.7,36.1 M4.1,1.6c-1.4,0-2.5,1.1-2.5,2.5V32c0,1.4,1.1,2.5,2.5,2.5h42.6c1.4,0,2.5-1.1,2.5-2.5V4.1
		c0-1.4-1.1-2.5-2.5-2.5H4.1z"/>
	<path clip-path="url(#SVGID_2_)" d="M25.4,22.2c-1.1,0-2.2-0.4-3-1.1L1.4,2.7C1,2.4,1,1.9,1.3,1.6c0.3-0.3,0.8-0.4,1.2-0.1l21,18.3
		c1,0.9,2.8,0.9,3.9,0l21-18.3c0.3-0.3,0.9-0.3,1.2,0.1c0.3,0.3,0.3,0.9-0.1,1.2l-21,18.3C27.6,21.8,26.5,22.2,25.4,22.2"/>
</g>
</svg>
