<svg version="1.1" id="Layer_1" xmlns="http://www.w3.org/2000/svg" xmlns:xlink="http://www.w3.org/1999/xlink" x="0px" y="0px"
	 viewBox="0 0 35.9 35.9" enable-background="new 0 0 35.9 35.9" xml:space="preserve">
<g>
	<defs>
		<rect id="SVGID_1_" y="0" width="35.9" height="35.9"/>
	</defs>
	<clipPath id="SVGID_2_">
		<use xlink:href="#SVGID_1_"  overflow="visible"/>
	</clipPath>
	<path clip-path="url(#SVGID_2_)" d="M31.4,0c-4.5,0-9,0-13.5,0C13.5,0,9,0,4.6,0C1.8,0,0,1.7,0,4.4c0,9,0,18,0,27
		c0,2.7,1.7,4.4,4.4,4.4c9,0,18.1,0,27.1,0c2.7,0,4.4-1.8,4.4-4.5c0-9,0-17.9,0-26.9C35.9,1.7,34.2,0,31.4,0 M26.3,4.2
		c1.3,0,2.7,0,4,0c0.9,0,1.4,0.5,1.4,1.4c0,1.3,0,2.6,0,4c0,0.9-0.5,1.4-1.5,1.4c-0.7,0-1.3,0-2,0c-0.6,0-1.3,0-1.9,0
		c-0.9,0-1.4-0.4-1.4-1.3c0-1.4,0-2.7,0-4.1C24.9,4.7,25.4,4.2,26.3,4.2 M17.9,11.1c3.8,0,6.8,3,6.9,6.8c0,3.8-3,6.9-6.8,6.9
		c-3.8,0-6.8-3-6.8-6.8C11.1,14.2,14.2,11.1,17.9,11.1 M31.7,16.2c0,4.5,0,9,0,13.6c0,1.4-0.4,1.8-1.7,1.8c-8,0-16,0-23.9,0
		c-1.3,0-1.7-0.4-1.7-1.6c0-4.7,0-9.4,0-14.2c0-0.2,0-0.3,0.1-0.5h2.9c-0.8,4.2,0.2,7.9,3.4,10.9c2.3,2.1,5.1,3,8.2,2.8
		c5.9-0.4,11.5-5.8,10-13.7h2.9V16.2z"/>
</g>
</svg>
