<svg version="1.1" id="Layer_1" xmlns="http://www.w3.org/2000/svg" xmlns:xlink="http://www.w3.org/1999/xlink" x="0px" y="0px"
	 viewBox="0 0 52.7 30.1" enable-background="new 0 0 52.7 30.1" xml:space="preserve">
<g>
	<defs>
		<rect id="SVGID_1_" y="0" width="52.7" height="30.1"/>
	</defs>
	<clipPath id="SVGID_2_">
		<use xlink:href="#SVGID_1_"  overflow="visible"/>
	</clipPath>
	<path clip-path="url(#SVGID_2_)" fill-rule="evenodd" clip-rule="evenodd" d="M25.8,29.9h3.1c0,0,1-0.1,1.4-0.6
		c0.4-0.5,0.4-1.4,0.4-1.4s-0.1-4.2,1.9-4.8c1.9-0.6,4.4,4.1,7,5.9c2,1.4,3.5,1.1,3.5,1.1l7-0.1c0,0,3.7-0.2,1.9-3.1
		c-0.1-0.2-1-2.1-5.2-6.1c-4.4-4.1-3.8-3.4,1.5-10.5c3.2-4.3,4.5-6.9,4.1-8.1c-0.4-1.1-2.8-0.8-2.8-0.8l-7.9,0.1c0,0-0.6-0.1-1,0.2
		c-0.4,0.3-0.7,0.9-0.7,0.9s-1.3,3.3-2.9,6.2c-3.5,6-4.9,6.3-5.5,5.9c-1.3-0.9-1-3.5-1-5.3c0-5.8,0.9-8.2-1.7-8.9
		C28.2,0.2,27.5,0,25.3,0c-2.8,0-5.2,0-6.6,0.7c-0.9,0.4-1.6,1.4-1.2,1.5c0.5,0.1,1.7,0.3,2.3,1.2c0.8,1.1,0.8,3.6,0.8,3.6
		s0.5,6.8-1.1,7.7c-1.1,0.6-2.5-0.6-5.7-6c-1.6-2.8-2.8-5.9-2.8-5.9s-0.2-0.6-0.7-0.9C10,1.4,9.2,1.3,9.2,1.3l-7.5,0
		c0,0-1.1,0-1.5,0.5c-0.4,0.4,0,1.3,0,1.3S6,17,12.7,24C18.8,30.4,25.8,29.9,25.8,29.9"/>
</g>
</svg>
